# Blender v2.80 (sub 74) OBJ File: ''
# www.blender.org
mtllib fence.mtl
o Cube.001
v 0.719087 2.779866 -0.854817
v 0.719087 1.000000 -0.854817
v 0.615187 2.779866 -0.854817
v 0.615187 1.000000 -0.854817
v -0.718586 2.816873 -0.854817
v -0.718586 1.000000 -0.854817
v -0.618905 2.816873 -0.854817
v -0.618905 1.000000 -0.854817
v 0.615187 2.642999 -0.854817
v -0.618905 2.642998 -0.854817
v 0.719087 2.642999 -0.854817
v -0.718586 2.642998 -0.854817
v -0.618905 2.510172 -0.854817
v 0.615187 2.510173 -0.854817
v 0.719087 2.510173 -0.854817
v -0.718586 2.510172 -0.854817
v -0.048515 2.868114 -0.854817
v -0.048515 2.510173 -0.854817
v -0.048515 2.642999 -0.854817
v -0.048515 1.000000 -0.854817
v 0.057075 2.868114 -0.854817
v 0.057075 2.510173 -0.854817
v 0.057075 2.642999 -0.854817
v 0.057075 1.000000 -0.854817
v -0.618905 1.000000 -0.754817
v -0.718586 1.000000 -0.754817
v 0.719087 2.510173 -0.754817
v 0.719087 1.000000 -0.754817
v -0.618905 2.642998 -0.754817
v -0.618905 2.816873 -0.754817
v -0.618905 2.510172 -0.754817
v -0.718586 2.510172 -0.754817
v 0.615187 2.779866 -0.754817
v 0.615187 2.642999 -0.754817
v 0.615187 2.510173 -0.754817
v 0.615187 1.000000 -0.754817
v -0.718586 2.816873 -0.754817
v 0.719087 2.779866 -0.754817
v 0.719087 2.642999 -0.754817
v -0.718586 2.642998 -0.754817
v 0.057075 2.642999 -0.754817
v -0.048515 2.510173 -0.754817
v 0.057075 2.510173 -0.754817
v -0.048515 2.642999 -0.754817
v 0.057075 1.000000 -0.754817
v -0.048515 1.000000 -0.754817
v -0.048515 2.868114 -0.754817
v 0.057075 2.868114 -0.754817
v -0.618905 2.510172 -0.723181
v -0.618905 2.642998 -0.723181
v -0.618905 2.510172 -0.886454
v -0.618905 2.642998 -0.886454
v 0.057075 2.642999 -0.886454
v 0.615187 2.642999 -0.886454
v 0.719087 2.642999 -0.886454
v -0.718586 2.642998 -0.886454
v 0.615187 2.510173 -0.886454
v 0.719087 2.510173 -0.886454
v -0.718586 2.510172 -0.886454
v -0.048515 2.510173 -0.886454
v 0.057075 2.510173 -0.886454
v -0.048515 2.642999 -0.886454
v 0.057075 2.642999 -0.723181
v 0.615187 2.642999 -0.723181
v 0.719087 2.642999 -0.723181
v -0.718586 2.642998 -0.723181
v 0.615187 2.510173 -0.723181
v 0.719087 2.510173 -0.723181
v -0.718586 2.510172 -0.723181
v -0.048515 2.510173 -0.723181
v 0.057075 2.510173 -0.723181
v -0.048515 2.642999 -0.723181
v -0.618905 2.510172 -0.686762
v -0.618905 2.642998 -0.686762
v -0.618905 2.510172 -0.922873
v -0.618905 2.642998 -0.922873
v 0.615187 2.642999 -0.922873
v 0.719087 2.642999 -0.922873
v -0.718586 2.642998 -0.922873
v 0.615187 2.510173 -0.922873
v 0.719087 2.510173 -0.922873
v -0.718586 2.510172 -0.922873
v 0.057075 2.510173 -0.922873
v -0.048515 2.510173 -0.922873
v -0.048515 2.642999 -0.922873
v 0.057075 2.642999 -0.922873
v 0.615187 2.642999 -0.686762
v 0.719087 2.642999 -0.686762
v -0.718586 2.642998 -0.686762
v 0.615187 2.510173 -0.686762
v 0.719087 2.510173 -0.686762
v -0.718586 2.510172 -0.686762
v 0.057075 2.510173 -0.686762
v -0.048515 2.510173 -0.686762
v -0.048515 2.642999 -0.686762
v 0.057075 2.642999 -0.686762
v 1.049486 2.642999 -0.854817
v 1.049486 2.510173 -0.854817
v -1.048986 2.642998 -0.854817
v -1.048986 2.510172 -0.854817
v 1.049486 2.642999 -0.754817
v 1.049486 2.510173 -0.754817
v -1.048986 2.642998 -0.754817
v -1.048986 2.510172 -0.754817
v 0.719087 2.642999 -0.884213
v 0.719087 2.510173 -0.884213
v -0.718586 2.642998 -0.884213
v -0.718586 2.510172 -0.884213
v 0.719087 2.642999 -0.725422
v 0.719087 2.510173 -0.725422
v -0.718586 2.642998 -0.725422
v -0.718586 2.510172 -0.725422
v 1.049486 2.642999 -0.884213
v 1.049486 2.510173 -0.884213
v -1.048986 2.642998 -0.884213
v -1.048986 2.510172 -0.884213
v 1.049486 2.642999 -0.725422
v 1.049486 2.510173 -0.725422
v -1.048986 2.642998 -0.725422
v -1.048986 2.510172 -0.725422
v 0.615187 2.055325 -0.854817
v -0.618905 2.055325 -0.854817
v 0.719087 2.055325 -0.854817
v -0.718586 2.055325 -0.854817
v -0.618905 1.988658 -0.854817
v 0.615187 1.988658 -0.854817
v 0.719087 1.988658 -0.854817
v -0.718586 1.988658 -0.854817
v -0.048515 1.988658 -0.854817
v -0.048515 2.055325 -0.854817
v 0.057075 1.988658 -0.854817
v 0.057075 2.055325 -0.854817
v 0.719087 1.988658 -0.754817
v -0.618905 2.055325 -0.754817
v -0.618905 1.988658 -0.754817
v -0.718586 1.988658 -0.754817
v 0.615187 2.055325 -0.754817
v 0.615187 1.988658 -0.754817
v 0.719087 2.055325 -0.754817
v -0.718586 2.055325 -0.754817
v 0.057075 2.055325 -0.754817
v -0.048515 1.988658 -0.754817
v 0.057075 1.988658 -0.754817
v -0.048515 2.055325 -0.754817
v -0.618905 1.988658 -0.723181
v -0.618905 2.055325 -0.723181
v -0.618905 1.988658 -0.886454
v -0.618905 2.055325 -0.886454
v 0.057075 2.055325 -0.886454
v 0.615187 2.055325 -0.886454
v 0.719087 2.055325 -0.886454
v -0.718586 2.055325 -0.886454
v 0.615187 1.988658 -0.886454
v 0.719087 1.988658 -0.886454
v -0.718586 1.988658 -0.886454
v -0.048515 1.988658 -0.886454
v 0.057075 1.988658 -0.886454
v -0.048515 2.055325 -0.886454
v 0.057075 2.055325 -0.723181
v 0.615187 2.055325 -0.723181
v 0.719087 2.055325 -0.723181
v -0.718586 2.055325 -0.723181
v 0.615187 1.988658 -0.723181
v 0.719087 1.988658 -0.723181
v -0.718586 1.988658 -0.723181
v -0.048515 1.988658 -0.723181
v 0.057075 1.988658 -0.723181
v -0.048515 2.055325 -0.723181
v -0.618905 1.988658 -0.686762
v -0.618905 2.055325 -0.686762
v -0.618905 1.988658 -0.922873
v -0.618905 2.055325 -0.922873
v 0.615187 2.055325 -0.922873
v 0.719087 2.055325 -0.922873
v -0.718586 2.055325 -0.922873
v 0.615187 1.988658 -0.922873
v 0.719087 1.988658 -0.922873
v -0.718586 1.988658 -0.922873
v 0.057075 1.988658 -0.922873
v -0.048515 1.988658 -0.922873
v -0.048515 2.055325 -0.922873
v 0.057075 2.055325 -0.922873
v 0.615187 2.055325 -0.686762
v 0.719087 2.055325 -0.686762
v -0.718586 2.055325 -0.686762
v 0.615187 1.988658 -0.686762
v 0.719087 1.988658 -0.686762
v -0.718586 1.988658 -0.686762
v 0.057075 1.988658 -0.686762
v -0.048515 1.988658 -0.686762
v -0.048515 2.055325 -0.686762
v 0.057075 2.055325 -0.686762
v 1.049486 2.055325 -0.854817
v 1.049486 1.988658 -0.854817
v -1.048986 2.055325 -0.854817
v -1.048986 1.988658 -0.854817
v 1.049486 2.055325 -0.754817
v 1.049486 1.988658 -0.754817
v -1.048986 2.055325 -0.754817
v -1.048986 1.988658 -0.754817
v 0.719087 2.055325 -0.884213
v 0.719087 1.988658 -0.884213
v -0.718586 2.055325 -0.884213
v -0.718586 1.988658 -0.884213
v 0.719087 2.055325 -0.725422
v 0.719087 1.988658 -0.725422
v -0.718586 2.055325 -0.725422
v -0.718586 1.988658 -0.725422
v 1.049486 2.055325 -0.884213
v 1.049486 1.988658 -0.884213
v -1.048986 2.055325 -0.884213
v -1.048986 1.988658 -0.884213
v 1.049486 2.055325 -0.725422
v 1.049486 1.988658 -0.725422
v -1.048986 2.055325 -0.725422
v -1.048986 1.988658 -0.725422
vt 0.625000 0.735655
vt 0.795787 0.735655
vt 0.795787 0.750000
vt 0.625000 0.750000
vt 0.830375 0.513611
vt 0.875000 0.513611
vt 0.875000 0.500000
vt 0.830375 0.500000
vt 0.795787 0.750000
vt 0.795787 0.750000
vt 0.795787 0.735655
vt 0.795787 0.735655
vt 0.625000 0.500000
vt 0.625000 0.513611
vt 0.795787 0.513611
vt 0.795787 0.500000
vt 0.830375 0.750000
vt 0.830375 0.735655
vt 0.875000 0.735655
vt 0.875000 0.750000
vt 0.625000 0.500000
vt 0.795787 0.500000
vt 0.795787 0.513611
vt 0.625000 0.513611
vt 0.830375 0.513611
vt 0.830375 0.500000
vt 0.875000 0.500000
vt 0.875000 0.513611
vt 0.830375 0.634881
vt 0.830375 0.634881
vt 0.830375 0.735655
vt 0.830375 0.735655
vt 0.830375 0.513611
vt 0.830375 0.500000
vt 0.795787 0.616520
vt 0.795787 0.616520
vt 0.795787 0.513611
vt 0.625000 0.616520
vt 0.795787 0.616520
vt 0.795787 0.634881
vt 0.625000 0.634881
vt 0.795787 0.500000
vt 0.795787 0.513611
vt 0.830375 0.750000
vt 0.875000 0.750000
vt 0.875000 0.735655
vt 0.625000 0.735655
vt 0.625000 0.750000
vt 0.830375 0.750000
vt 0.830375 0.735655
vt 0.875000 0.634881
vt 0.830375 0.634881
vt 0.830375 0.616520
vt 0.875000 0.616520
vt 0.795787 0.500000
vt 0.830375 0.500000
vt 0.795787 0.735655
vt 0.795787 0.750000
vt 0.625000 0.616520
vt 0.625000 0.634881
vt 0.795787 0.634881
vt 0.830375 0.634881
vt 0.830375 0.750000
vt 0.875000 0.634881
vt 0.875000 0.616520
vt 0.830375 0.616520
vt 0.795787 0.750000
vt 0.795787 0.750000
vt 0.795787 0.750000
vt 0.795787 0.750000
vt 0.795787 0.750000
vt 0.830375 0.750000
vt 0.830375 0.750000
vt 0.795787 0.634881
vt 0.795787 0.634881
vt 0.795787 0.735655
vt 0.830375 0.735655
vt 0.830375 0.735655
vt 0.795787 0.735655
vt 0.830375 0.616520
vt 0.795787 0.616520
vt 0.830375 0.500000
vt 0.830375 0.513611
vt 0.830375 0.513611
vt 0.830375 0.513611
vt 0.830375 0.500000
vt 0.795787 0.634881
vt 0.795787 0.616520
vt 0.830375 0.616520
vt 0.795787 0.616520
vt 0.795787 0.634881
vt 0.795787 0.750000
vt 0.830375 0.750000
vt 0.795787 0.513611
vt 0.795787 0.500000
vt 0.830375 0.634881
vt 0.830375 0.616520
vt 0.795787 0.750000
vt 0.830375 0.750000
vt 0.795787 0.513611
vt 0.795787 0.500000
vt 0.830375 0.634881
vt 0.830375 0.616520
vt 0.830375 0.750000
vt 0.795787 0.500000
vt 0.795787 0.500000
vt 0.830375 0.500000
vt 0.830375 0.500000
vt 0.795787 0.500000
vt 0.795787 0.500000
vt 0.830375 0.750000
vt 0.830375 0.750000
vt 0.830375 0.500000
vt 0.830375 0.500000
vt 0.795787 0.500000
vt 0.795787 0.500000
vt 0.830375 0.750000
vt 0.795787 0.750000
vt 0.830375 0.500000
vt 0.830375 0.500000
vt 0.795787 0.750000
vt 0.795787 0.750000
vt 0.795787 0.735655
vt 0.795787 0.735655
vt 0.830375 0.634881
vt 0.830375 0.634881
vt 0.830375 0.735655
vt 0.830375 0.735655
vt 0.830375 0.513611
vt 0.830375 0.513611
vt 0.830375 0.500000
vt 0.830375 0.500000
vt 0.795787 0.616520
vt 0.795787 0.616520
vt 0.795787 0.513611
vt 0.795787 0.513611
vt 0.795787 0.500000
vt 0.795787 0.500000
vt 0.795787 0.513611
vt 0.795787 0.513611
vt 0.830375 0.750000
vt 0.830375 0.750000
vt 0.830375 0.735655
vt 0.830375 0.735655
vt 0.795787 0.735655
vt 0.795787 0.735655
vt 0.795787 0.750000
vt 0.795787 0.750000
vt 0.830375 0.634881
vt 0.830375 0.634881
vt 0.795787 0.634881
vt 0.795787 0.634881
vt 0.830375 0.513611
vt 0.830375 0.616520
vt 0.830375 0.616520
vt 0.795787 0.750000
vt 0.795787 0.750000
vt 0.795787 0.750000
vt 0.795787 0.750000
vt 0.795787 0.750000
vt 0.830375 0.750000
vt 0.830375 0.750000
vt 0.795787 0.616520
vt 0.795787 0.634881
vt 0.795787 0.634881
vt 0.795787 0.735655
vt 0.830375 0.735655
vt 0.830375 0.735655
vt 0.795787 0.735655
vt 0.830375 0.616520
vt 0.795787 0.616520
vt 0.830375 0.500000
vt 0.830375 0.500000
vt 0.830375 0.513611
vt 0.830375 0.513611
vt 0.830375 0.513611
vt 0.830375 0.500000
vt 0.795787 0.634881
vt 0.795787 0.616520
vt 0.830375 0.616520
vt 0.795787 0.616520
vt 0.795787 0.634881
vt 0.830375 0.750000
vt 0.830375 0.750000
vt 0.795787 0.500000
vt 0.795787 0.500000
vt 0.830375 0.500000
vt 0.795787 0.750000
vt 0.830375 0.750000
vt 0.795787 0.513611
vt 0.795787 0.500000
vt 0.830375 0.634881
vt 0.830375 0.616520
vt 0.795787 0.750000
vt 0.830375 0.750000
vt 0.795787 0.513611
vt 0.795787 0.500000
vt 0.830375 0.634881
vt 0.830375 0.616520
vt 0.830375 0.750000
vt 0.795787 0.500000
vt 0.795787 0.500000
vt 0.830375 0.500000
vt 0.830375 0.500000
vt 0.795787 0.500000
vt 0.795787 0.500000
vt 0.830375 0.750000
vt 0.830375 0.750000
vt 0.830375 0.500000
vt 0.830375 0.500000
vt 0.795787 0.500000
vt 0.795787 0.500000
vt 0.830375 0.750000
vt 0.795787 0.750000
vt 0.830375 0.500000
vt 0.830375 0.500000
vn 0.0000 0.0000 -1.0000
vn 0.0000 0.0000 1.0000
vn 0.0000 -1.0000 0.0000
vn 0.0000 1.0000 0.0000
vn -1.0000 0.0000 0.0000
vn 1.0000 0.0000 0.0000
usemtl Material.001
s off
f 4/1/1 14/2/1 15/3/1 2/4/1
f 29/5/2 30/6/2 37/7/2 40/8/2
f 27/9/3 68/10/3 67/11/3 35/12/3
f 26/13/2 25/14/2 31/15/2 32/16/2
f 11/17/1 9/18/1 3/19/1 1/20/1
f 6/21/1 16/22/1 13/23/1 8/24/1
f 10/25/1 12/26/1 5/27/1 7/28/1
f 41/29/4 63/30/4 64/31/4 34/32/4
f 10/25/4 52/33/4 56/34/4 12/26/4
f 42/35/3 70/36/3 49/37/3 31/15/3
f 20/38/1 18/39/1 22/40/1 24/41/1
f 16/22/3 59/42/3 51/43/3 13/23/3
f 39/44/2 38/45/2 33/46/2 34/32/2
f 36/47/2 28/48/2 27/9/2 35/12/2
f 11/17/4 55/49/4 54/50/4 9/18/4
f 21/51/1 23/52/1 19/53/1 17/54/1
f 32/16/5 69/55/5 66/56/5 40/8/5
f 14/2/3 57/57/3 58/58/3 15/3/3
f 46/59/2 45/60/2 43/61/2 42/35/2
f 9/18/4 54/50/4 53/62/4 23/52/4
f 39/44/6 65/63/6 68/10/6 27/9/6
f 48/64/2 47/65/2 44/66/2 41/29/2
f 23/52/4 41/29/4 34/32/4 9/18/4
f 4/1/5 36/47/5 35/12/5 14/2/5
f 21/51/6 48/64/6 41/29/6 23/52/6
f 19/53/5 44/66/5 47/65/5 17/54/5
f 8/24/3 25/14/3 26/13/3 6/21/3
f 17/54/4 47/65/4 48/64/4 21/51/4
f 5/27/4 37/7/4 30/6/4 7/28/4
f 15/3/6 27/9/6 28/48/6 2/4/6
f 13/23/6 31/15/6 25/14/6 8/24/6
f 14/2/3 35/12/3 43/61/3 22/40/3
f 3/19/4 33/46/4 38/45/4 1/20/4
f 7/28/6 30/6/6 29/5/6 10/25/6
f 2/4/3 28/48/3 36/47/3 4/1/3
f 10/25/4 29/5/4 44/66/4 19/53/4
f 102/67/3 118/68/3 110/69/3 27/9/3
f 1/20/6 38/45/6 39/44/6 11/17/6
f 24/41/3 45/60/3 46/59/3 20/38/3
f 6/21/5 26/13/5 32/16/5 16/22/5
f 98/70/6 114/71/6 113/72/6 97/73/6
f 22/40/6 43/61/6 45/60/6 24/41/6
f 12/26/5 40/8/5 37/7/5 5/27/5
f 20/38/5 46/59/5 42/35/5 18/39/5
f 9/18/5 34/32/5 33/46/5 3/19/5
f 18/39/3 42/35/3 31/15/3 13/23/3
f 67/11/2 64/31/2 63/30/2 71/74/2
f 57/57/1 61/75/1 53/62/1 54/50/1
f 67/11/5 90/76/5 87/77/5 64/31/5
f 54/50/5 77/78/5 80/79/5 57/57/5
f 62/80/1 60/81/1 51/43/1 52/33/1
f 66/56/4 89/82/4 74/83/4 50/84/4
f 52/33/4 76/85/4 79/86/4 56/34/4
f 71/74/3 93/87/3 94/88/3 70/36/3
f 72/89/2 50/84/2 49/37/2 70/36/2
f 60/81/3 84/90/3 83/91/3 61/75/3
f 22/40/3 61/75/3 57/57/3 14/2/3
f 34/32/4 64/31/4 65/63/4 39/44/4
f 18/39/3 60/81/3 61/75/3 22/40/3
f 31/15/3 49/37/3 69/55/3 32/16/3
f 23/52/4 53/62/4 62/80/4 19/53/4
f 40/8/4 66/56/4 50/84/4 29/5/4
f 35/12/3 67/11/3 71/74/3 43/61/3
f 19/53/4 62/80/4 52/33/4 10/25/4
f 43/61/3 71/74/3 70/36/3 42/35/3
f 15/3/6 58/58/6 55/49/6 11/17/6
f 44/66/4 72/89/4 63/30/4 41/29/4
f 29/5/4 50/84/4 72/89/4 44/66/4
f 12/26/5 56/34/5 59/42/5 16/22/5
f 13/23/3 51/43/3 60/81/3 18/39/3
f 81/92/1 80/79/1 77/78/1 78/93/1
f 75/94/1 82/95/1 79/86/1 76/85/1
f 86/96/1 83/91/1 84/90/1 85/97/1
f 91/98/2 88/99/2 87/77/2 90/76/2
f 73/100/2 74/83/2 89/82/2 92/101/2
f 96/102/2 95/103/2 94/88/2 93/87/2
f 62/80/5 85/97/5 84/90/5 60/81/5
f 70/36/5 94/88/5 95/103/5 72/89/5
f 58/58/6 81/92/6 78/93/6 55/49/6
f 65/63/6 88/99/6 91/98/6 68/10/6
f 56/34/5 79/86/5 82/95/5 59/42/5
f 69/55/5 92/101/5 89/82/5 66/56/5
f 50/84/6 74/83/6 73/100/6 49/37/6
f 53/62/4 86/96/4 85/97/4 62/80/4
f 72/89/4 95/103/4 96/102/4 63/30/4
f 51/43/6 75/94/6 76/85/6 52/33/6
f 61/75/6 83/91/6 86/96/6 53/62/6
f 63/30/6 96/102/6 93/87/6 71/74/6
f 57/57/3 80/79/3 81/92/3 58/58/3
f 68/10/3 91/98/3 90/76/3 67/11/3
f 59/42/3 82/95/3 75/94/3 51/43/3
f 49/37/3 73/100/3 92/101/3 69/55/3
f 55/49/4 78/93/4 77/78/4 54/50/4
f 64/31/4 87/77/4 88/99/4 65/63/4
f 97/73/6 101/104/6 102/67/6 98/70/6
f 100/105/5 104/106/5 103/107/5 99/108/5
f 12/26/4 99/108/4 103/107/4 40/8/4
f 39/44/4 101/104/4 97/73/4 11/17/4
f 100/105/3 116/109/3 108/110/3 16/22/3
f 39/44/4 109/111/4 117/112/4 101/104/4
f 15/3/3 98/70/3 102/67/3 27/9/3
f 32/16/3 104/106/3 100/105/3 16/22/3
f 111/113/2 119/114/2 120/115/2 112/116/2
f 105/117/1 113/72/1 114/71/1 106/118/1
f 108/110/1 116/109/1 115/119/1 107/120/1
f 110/69/2 118/68/2 117/112/2 109/111/2
f 15/3/3 106/118/3 114/71/3 98/70/3
f 99/108/5 115/119/5 116/109/5 100/105/5
f 11/17/5 105/117/5 106/118/5 15/3/5
f 97/73/4 113/72/4 105/117/4 11/17/4
f 101/104/6 117/112/6 118/68/6 102/67/6
f 16/22/6 108/110/6 107/120/6 12/26/6
f 32/16/3 112/116/3 120/115/3 104/106/3
f 104/106/5 120/115/5 119/114/5 103/107/5
f 27/9/5 110/69/5 109/111/5 39/44/5
f 103/107/4 119/114/4 111/113/4 40/8/4
f 40/8/6 111/113/6 112/116/6 32/16/6
f 12/26/4 107/120/4 115/119/4 99/108/4
f 133/121/3 164/122/3 163/123/3 138/124/3
f 141/125/4 159/126/4 160/127/4 137/128/4
f 122/129/4 148/130/4 152/131/4 124/132/4
f 142/133/3 166/134/3 145/135/3 135/136/3
f 128/137/3 155/138/3 147/139/3 125/140/3
f 123/141/4 151/142/4 150/143/4 121/144/4
f 126/145/3 153/146/3 154/147/3 127/148/3
f 121/144/4 150/143/4 149/149/4 132/150/4
f 132/150/4 141/125/4 137/128/4 121/144/4
f 126/145/3 138/124/3 143/151/3 131/152/3
f 122/129/4 134/153/4 144/154/4 130/155/4
f 198/156/3 214/157/3 206/158/3 133/121/3
f 194/159/6 210/160/6 209/161/6 193/162/6
f 129/163/3 142/133/3 135/136/3 125/140/3
f 163/123/2 160/127/2 159/126/2 167/164/2
f 153/146/1 157/165/1 149/149/1 150/143/1
f 163/123/5 186/166/5 183/167/5 160/127/5
f 150/143/5 173/168/5 176/169/5 153/146/5
f 158/170/1 156/171/1 147/139/1 148/130/1
f 162/172/4 185/173/4 170/174/4 146/175/4
f 148/130/4 172/176/4 175/177/4 152/131/4
f 167/164/3 189/178/3 190/179/3 166/134/3
f 168/180/2 146/175/2 145/135/2 166/134/2
f 156/171/3 180/181/3 179/182/3 157/165/3
f 131/152/3 157/165/3 153/146/3 126/145/3
f 137/128/4 160/127/4 161/183/4 139/184/4
f 129/163/3 156/171/3 157/165/3 131/152/3
f 135/136/3 145/135/3 165/185/3 136/186/3
f 132/150/4 149/149/4 158/170/4 130/155/4
f 140/187/4 162/172/4 146/175/4 134/153/4
f 138/124/3 163/123/3 167/164/3 143/151/3
f 130/155/4 158/170/4 148/130/4 122/129/4
f 143/151/3 167/164/3 166/134/3 142/133/3
f 144/154/4 168/180/4 159/126/4 141/125/4
f 134/153/4 146/175/4 168/180/4 144/154/4
f 125/140/3 147/139/3 156/171/3 129/163/3
f 177/188/1 176/169/1 173/168/1 174/189/1
f 171/190/1 178/191/1 175/177/1 172/176/1
f 182/192/1 179/182/1 180/181/1 181/193/1
f 187/194/2 184/195/2 183/167/2 186/166/2
f 169/196/2 170/174/2 185/173/2 188/197/2
f 192/198/2 191/199/2 190/179/2 189/178/2
f 158/170/5 181/193/5 180/181/5 156/171/5
f 166/134/5 190/179/5 191/199/5 168/180/5
f 154/147/6 177/188/6 174/189/6 151/142/6
f 161/183/6 184/195/6 187/194/6 164/122/6
f 152/131/5 175/177/5 178/191/5 155/138/5
f 165/185/5 188/197/5 185/173/5 162/172/5
f 146/175/6 170/174/6 169/196/6 145/135/6
f 149/149/4 182/192/4 181/193/4 158/170/4
f 168/180/4 191/199/4 192/198/4 159/126/4
f 147/139/6 171/190/6 172/176/6 148/130/6
f 157/165/6 179/182/6 182/192/6 149/149/6
f 159/126/6 192/198/6 189/178/6 167/164/6
f 153/146/3 176/169/3 177/188/3 154/147/3
f 164/122/3 187/194/3 186/166/3 163/123/3
f 155/138/3 178/191/3 171/190/3 147/139/3
f 145/135/3 169/196/3 188/197/3 165/185/3
f 151/142/4 174/189/4 173/168/4 150/143/4
f 160/127/4 183/167/4 184/195/4 161/183/4
f 193/162/6 197/200/6 198/156/6 194/159/6
f 196/201/5 200/202/5 199/203/5 195/204/5
f 124/132/4 195/204/4 199/203/4 140/187/4
f 139/184/4 197/200/4 193/162/4 123/141/4
f 196/201/3 212/205/3 204/206/3 128/137/3
f 139/184/4 205/207/4 213/208/4 197/200/4
f 127/148/3 194/159/3 198/156/3 133/121/3
f 136/186/3 200/202/3 196/201/3 128/137/3
f 207/209/2 215/210/2 216/211/2 208/212/2
f 201/213/1 209/161/1 210/160/1 202/214/1
f 204/206/1 212/205/1 211/215/1 203/216/1
f 206/158/2 214/157/2 213/208/2 205/207/2
f 127/148/3 202/214/3 210/160/3 194/159/3
f 195/204/5 211/215/5 212/205/5 196/201/5
f 193/162/4 209/161/4 201/213/4 123/141/4
f 197/200/6 213/208/6 214/157/6 198/156/6
f 136/186/3 208/212/3 216/211/3 200/202/3
f 200/202/5 216/211/5 215/210/5 199/203/5
f 199/203/4 215/210/4 207/209/4 140/187/4
f 124/132/4 203/216/4 211/215/4 195/204/4
