# Blender v2.80 (sub 74) OBJ File: ''
# www.blender.org
mtllib floor.mtl
o Cube
v 0.866514 0.956665 -0.954378
v 0.866514 -0.940636 -0.954378
v 0.866514 0.956665 0.954378
v 0.866514 -0.940636 0.954378
v -0.895398 0.956665 -0.954378
v -0.895398 -0.940636 -0.954378
v -0.895398 0.956665 0.954378
v -0.895398 -0.940636 0.954378
vt 0.375000 0.000000
vt 0.625000 0.000000
vt 0.625000 0.250000
vt 0.375000 0.250000
vt 0.375000 0.250000
vt 0.625000 0.250000
vt 0.625000 0.500000
vt 0.375000 0.500000
vt 0.625000 0.750000
vt 0.375000 0.750000
vt 0.625000 0.750000
vt 0.625000 1.000000
vt 0.375000 1.000000
vt 0.125000 0.500000
vt 0.375000 0.500000
vt 0.375000 0.750000
vt 0.125000 0.750000
vt 0.625000 0.500000
vt 0.875000 0.500000
vt 0.875000 0.750000
vn 0.0000 1.0000 0.0000
vn 0.0000 0.0000 1.0000
vn -1.0000 0.0000 0.0000
vn 0.0000 -1.0000 0.0000
vn 1.0000 0.0000 0.0000
vn 0.0000 0.0000 -1.0000
usemtl Material
s off
f 1/1/1 5/2/1 7/3/1 3/4/1
f 4/5/2 3/6/2 7/7/2 8/8/2
f 8/8/3 7/7/3 5/9/3 6/10/3
f 6/10/4 2/11/4 4/12/4 8/13/4
f 2/14/5 1/15/5 3/16/5 4/17/5
f 6/18/6 5/19/6 1/20/6 2/11/6
o Cube.002
v -0.972046 0.464058 -0.479424
v -0.972046 0.850568 -0.479424
v -0.972046 0.464058 -0.844555
v -0.972046 0.850568 -0.844555
v 0.972046 0.464058 -0.479424
v 0.972046 0.850568 -0.479424
v 0.972046 0.464058 -0.844555
v 0.972046 0.850568 -0.844555
v -0.972046 0.464058 0.182516
v -0.972046 0.850568 0.182516
v -0.972046 0.464058 -0.182615
v -0.972046 0.850568 -0.182615
v 0.972046 0.464058 0.182516
v 0.972046 0.850568 0.182516
v 0.972046 0.464058 -0.182615
v 0.972046 0.850568 -0.182615
v -0.972046 0.464058 0.836682
v -0.972046 0.850568 0.836682
v -0.972046 0.464058 0.471550
v -0.972046 0.850568 0.471550
v 0.972046 0.464058 0.836682
v 0.972046 0.850568 0.836682
v 0.972046 0.464058 0.471550
v 0.972046 0.850568 0.471550
v -1.000000 0.324313 -0.976571
v -1.000000 0.324313 -0.347408
v -1.000000 0.990313 -0.347408
v -1.000000 0.990313 -0.976571
v 1.000000 0.990313 -0.976571
v 1.000000 0.324313 -0.976571
v 1.000000 0.324313 -0.347408
v 1.000000 0.990313 -0.347408
v -1.000000 0.324313 -0.314631
v -1.000000 0.324313 0.314532
v -1.000000 0.990313 0.314532
v -1.000000 0.990313 -0.314631
v 1.000000 0.990313 -0.314631
v 1.000000 0.324313 -0.314631
v 1.000000 0.324313 0.314532
v 1.000000 0.990313 0.314532
v -1.000000 0.324313 0.339535
v -1.000000 0.324313 0.968697
v -1.000000 0.990313 0.968697
v -1.000000 0.990313 0.339535
v 1.000000 0.990313 0.339535
v 1.000000 0.324313 0.339535
v 1.000000 0.324313 0.968697
v 1.000000 0.990313 0.968697
v -1.000000 0.408790 -0.897505
v -1.000000 0.408790 -0.424030
v -1.000000 0.906183 -0.424030
v -1.000000 0.906183 -0.897505
v 1.000000 0.906183 -0.897505
v 1.000000 0.408790 -0.897505
v 1.000000 0.408790 -0.424030
v 1.000000 0.906183 -0.424030
v -1.000000 0.408790 -0.235566
v -1.000000 0.408790 0.237909
v -1.000000 0.906183 0.237909
v -1.000000 0.906183 -0.235566
v 1.000000 0.906183 -0.235566
v 1.000000 0.408790 -0.235566
v 1.000000 0.408790 0.237909
v 1.000000 0.906183 0.237909
v -1.000000 0.408790 0.418600
v -1.000000 0.408790 0.892075
v -1.000000 0.906183 0.892075
v -1.000000 0.906183 0.418600
v 1.000000 0.906183 0.418600
v 1.000000 0.408790 0.418600
v 1.000000 0.408790 0.892075
v 1.000000 0.906183 0.892075
vt 0.375000 0.250000
vt 0.625000 0.250000
vt 0.625000 0.500000
vt 0.375000 0.500000
vt 0.375000 0.750000
vt 0.625000 0.750000
vt 0.625000 1.000000
vt 0.375000 1.000000
vt 0.125000 0.500000
vt 0.125000 0.750000
vt 0.875000 0.500000
vt 0.875000 0.750000
vt 0.375000 0.250000
vt 0.625000 0.250000
vt 0.625000 0.500000
vt 0.375000 0.500000
vt 0.375000 0.750000
vt 0.625000 0.750000
vt 0.625000 1.000000
vt 0.375000 1.000000
vt 0.125000 0.500000
vt 0.125000 0.750000
vt 0.875000 0.500000
vt 0.875000 0.750000
vt 0.375000 0.250000
vt 0.625000 0.250000
vt 0.625000 0.500000
vt 0.375000 0.500000
vt 0.375000 0.750000
vt 0.625000 0.750000
vt 0.625000 1.000000
vt 0.375000 1.000000
vt 0.125000 0.500000
vt 0.125000 0.750000
vt 0.875000 0.500000
vt 0.875000 0.750000
vt 0.391090 0.016090
vt 0.391090 0.233910
vt 0.375000 0.000000
vt 0.608910 0.016090
vt 0.625000 0.000000
vt 0.608910 0.233910
vt 0.608910 0.516090
vt 0.391090 0.516090
vt 0.391090 0.733910
vt 0.608910 0.733910
vt 0.391090 0.016090
vt 0.391090 0.233910
vt 0.375000 0.000000
vt 0.608910 0.016090
vt 0.625000 0.000000
vt 0.608910 0.233910
vt 0.608910 0.516090
vt 0.391090 0.516090
vt 0.391090 0.733910
vt 0.608910 0.733910
vt 0.391090 0.016090
vt 0.391090 0.233910
vt 0.375000 0.000000
vt 0.608910 0.016090
vt 0.625000 0.000000
vt 0.608910 0.233910
vt 0.608910 0.516090
vt 0.391090 0.516090
vt 0.391090 0.733910
vt 0.608910 0.733910
vt 0.427457 0.052457
vt 0.427457 0.197543
vt 0.572543 0.052457
vt 0.572543 0.197543
vt 0.572543 0.552457
vt 0.427457 0.552457
vt 0.427457 0.697543
vt 0.572543 0.697543
vt 0.427457 0.052457
vt 0.427457 0.197543
vt 0.572543 0.052457
vt 0.572543 0.197543
vt 0.572543 0.552457
vt 0.427457 0.552457
vt 0.427457 0.697543
vt 0.572543 0.697543
vt 0.427457 0.052457
vt 0.427457 0.197543
vt 0.572543 0.052457
vt 0.572543 0.197543
vt 0.572543 0.552457
vt 0.427457 0.552457
vt 0.427457 0.697543
vt 0.572543 0.697543
vn 0.0000 0.0000 -1.0000
vn 0.0000 0.0000 1.0000
vn 0.0000 -1.0000 0.0000
vn 0.0000 1.0000 0.0000
vn -1.0000 0.0000 0.0000
vn 1.0000 0.0000 0.0000
vn -0.8923 0.4513 0.0000
vn -0.8928 0.0000 -0.4505
vn -0.8935 -0.4491 0.0000
vn -0.8843 0.0000 0.4669
vn 0.8843 0.0000 0.4669
vn 0.8923 0.4513 0.0000
vn 0.8935 -0.4491 0.0000
vn 0.8928 0.0000 -0.4505
usemtl Material.001
s off
f 33/21/7 36/22/7 37/23/7 38/24/7
f 39/25/8 40/26/8 35/27/8 34/28/8
f 33/29/9 38/24/9 39/25/9 34/30/9
f 37/23/10 36/31/10 35/32/10 40/26/10
f 41/33/7 44/34/7 45/35/7 46/36/7
f 47/37/8 48/38/8 43/39/8 42/40/8
f 41/41/9 46/36/9 47/37/9 42/42/9
f 45/35/10 44/43/10 43/44/10 48/38/10
f 49/45/7 52/46/7 53/47/7 54/48/7
f 55/49/8 56/50/8 51/51/8 50/52/8
f 49/53/9 54/48/9 55/49/9 50/54/9
f 53/47/10 52/55/10 51/56/10 56/50/10
f 58/57/11 57/58/11 33/21/11 34/59/11
f 59/60/11 58/57/11 34/59/11 35/61/11
f 60/62/11 59/60/11 35/61/11 36/22/11
f 57/58/11 60/62/11 36/22/11 33/21/11
f 61/63/12 62/64/12 38/24/12 37/23/12
f 62/64/12 63/65/12 39/25/12 38/24/12
f 64/66/12 61/63/12 37/23/12 40/26/12
f 63/65/12 64/66/12 40/26/12 39/25/12
f 66/67/11 65/68/11 41/33/11 42/69/11
f 67/70/11 66/67/11 42/69/11 43/71/11
f 68/72/11 67/70/11 43/71/11 44/34/11
f 65/68/11 68/72/11 44/34/11 41/33/11
f 69/73/12 70/74/12 46/36/12 45/35/12
f 70/74/12 71/75/12 47/37/12 46/36/12
f 72/76/12 69/73/12 45/35/12 48/38/12
f 71/75/12 72/76/12 48/38/12 47/37/12
f 74/77/11 73/78/11 49/45/11 50/79/11
f 75/80/11 74/77/11 50/79/11 51/81/11
f 76/82/11 75/80/11 51/81/11 52/46/11
f 73/78/11 76/82/11 52/46/11 49/45/11
f 77/83/12 78/84/12 54/48/12 53/47/12
f 78/84/12 79/85/12 55/49/12 54/48/12
f 80/86/12 77/83/12 53/47/12 56/50/12
f 79/85/12 80/86/12 56/50/12 55/49/12
f 9/87/13 11/88/13 57/58/13 58/57/13
f 10/89/14 9/87/14 58/57/14 59/60/14
f 12/90/15 10/89/15 59/60/15 60/62/15
f 11/88/16 12/90/16 60/62/16 57/58/16
f 16/91/17 15/92/17 62/64/17 61/63/17
f 15/92/18 13/93/18 63/65/18 62/64/18
f 14/94/19 16/91/19 61/63/19 64/66/19
f 13/93/20 14/94/20 64/66/20 63/65/20
f 17/95/13 19/96/13 65/68/13 66/67/13
f 18/97/14 17/95/14 66/67/14 67/70/14
f 20/98/15 18/97/15 67/70/15 68/72/15
f 19/96/16 20/98/16 68/72/16 65/68/16
f 24/99/17 23/100/17 70/74/17 69/73/17
f 23/100/18 21/101/18 71/75/18 70/74/18
f 22/102/19 24/99/19 69/73/19 72/76/19
f 21/101/20 22/102/20 72/76/20 71/75/20
f 25/103/13 27/104/13 73/78/13 74/77/13
f 26/105/14 25/103/14 74/77/14 75/80/14
f 28/106/15 26/105/15 75/80/15 76/82/15
f 27/104/16 28/106/16 76/82/16 73/78/16
f 32/107/17 31/108/17 78/84/17 77/83/17
f 31/108/18 29/109/18 79/85/18 78/84/18
f 30/110/19 32/107/19 77/83/19 80/86/19
f 29/109/20 30/110/20 80/86/20 79/85/20
usemtl Material.002
f 9/87/11 10/89/11 12/90/11 11/88/11
f 15/92/12 16/91/12 14/94/12 13/93/12
f 17/95/11 18/97/11 20/98/11 19/96/11
f 23/100/12 24/99/12 22/102/12 21/101/12
f 25/103/11 26/105/11 28/106/11 27/104/11
f 31/108/12 32/107/12 30/110/12 29/109/12
o Cube.001_Cube.004
v 0.429063 -0.187192 0.979968
v 0.795437 -0.187192 0.979968
v 0.429063 0.177939 0.979968
v 0.795437 0.177939 0.979968
v 0.429063 -0.187192 -0.982834
v 0.795437 -0.187192 -0.982834
v 0.429063 0.177939 -0.982834
v 0.795437 0.177939 -0.982834
v 0.429063 -0.841358 0.979968
v 0.795437 -0.841358 0.979968
v 0.429063 -0.476227 0.979968
v 0.795437 -0.476227 0.979968
v 0.429063 -0.841358 -0.982834
v 0.795437 -0.841358 -0.982834
v 0.429063 -0.476227 -0.982834
v 0.795437 -0.476227 -0.982834
v 0.296598 0.309955 1.008192
v 0.296598 -0.319208 1.008192
v 0.927902 -0.319208 1.008192
v 0.927902 0.309955 1.008192
v 0.927902 0.309955 -1.011058
v 0.296598 0.309955 -1.011058
v 0.296598 -0.319208 -1.011058
v 0.927902 -0.319208 -1.011058
v 0.296598 -0.344211 1.008192
v 0.296598 -0.973374 1.008192
v 0.927902 -0.973374 1.008192
v 0.927902 -0.344211 1.008192
v 0.927902 -0.344211 -1.011058
v 0.296598 -0.344211 -1.011058
v 0.296598 -0.973374 -1.011058
v 0.927902 -0.973374 -1.011058
v 0.376675 0.230889 1.008192
v 0.376674 -0.242586 1.008192
v 0.848155 -0.242586 1.008192
v 0.848155 0.230889 1.008192
v 0.848155 0.230889 -1.011058
v 0.376674 0.230889 -1.011058
v 0.376674 -0.242586 -1.011058
v 0.848155 -0.242586 -1.011058
v 0.376674 -0.423276 1.008192
v 0.376674 -0.896752 1.008192
v 0.848155 -0.896752 1.008192
v 0.848155 -0.423276 1.008192
v 0.848155 -0.423276 -1.011058
v 0.376674 -0.423276 -1.011058
v 0.376674 -0.896752 -1.011058
v 0.848155 -0.896752 -1.011058
vt 0.375000 0.250000
vt 0.625000 0.250000
vt 0.625000 0.500000
vt 0.375000 0.500000
vt 0.375000 0.750000
vt 0.625000 0.750000
vt 0.625000 1.000000
vt 0.375000 1.000000
vt 0.125000 0.500000
vt 0.125000 0.750000
vt 0.875000 0.500000
vt 0.875000 0.750000
vt 0.375000 0.250000
vt 0.625000 0.250000
vt 0.625000 0.500000
vt 0.375000 0.500000
vt 0.375000 0.750000
vt 0.625000 0.750000
vt 0.625000 1.000000
vt 0.375000 1.000000
vt 0.125000 0.500000
vt 0.125000 0.750000
vt 0.875000 0.500000
vt 0.875000 0.750000
vt 0.391090 0.016090
vt 0.391090 0.233910
vt 0.375000 0.000000
vt 0.608910 0.016090
vt 0.625000 0.000000
vt 0.608910 0.233910
vt 0.608910 0.516090
vt 0.391090 0.516090
vt 0.391090 0.733910
vt 0.608910 0.733910
vt 0.391090 0.016090
vt 0.391090 0.233910
vt 0.375000 0.000000
vt 0.608910 0.016090
vt 0.625000 0.000000
vt 0.608910 0.233910
vt 0.608910 0.516090
vt 0.391090 0.516090
vt 0.391090 0.733910
vt 0.608910 0.733910
vt 0.427457 0.052457
vt 0.427457 0.197543
vt 0.572543 0.052457
vt 0.572543 0.197543
vt 0.572543 0.552457
vt 0.427457 0.552457
vt 0.427457 0.697543
vt 0.572543 0.697543
vt 0.427457 0.052457
vt 0.427457 0.197543
vt 0.572543 0.052457
vt 0.572543 0.197543
vt 0.572543 0.552457
vt 0.427457 0.552457
vt 0.427457 0.697543
vt 0.572543 0.697543
vn 0.0000 1.0000 0.0000
vn 0.0000 -1.0000 0.0000
vn -1.0000 0.0000 0.0000
vn 1.0000 0.0000 -0.0000
vn 0.0000 0.0000 1.0000
vn 0.0000 0.0000 -1.0000
vn 0.4743 -0.0000 0.8804
vn 0.0000 0.4540 0.8910
vn -0.4720 0.0000 0.8816
vn 0.0000 -0.4704 0.8825
vn 0.0000 -0.4704 -0.8825
vn 0.4743 -0.0000 -0.8804
vn -0.4720 0.0000 -0.8816
vn 0.0000 0.4540 -0.8910
usemtl Material.001
s off
f 97/111/21 100/112/21 101/113/21 102/114/21
f 103/115/22 104/116/22 99/117/22 98/118/22
f 97/119/23 102/114/23 103/115/23 98/120/23
f 101/113/24 100/121/24 99/122/24 104/116/24
f 105/123/21 108/124/21 109/125/21 110/126/21
f 111/127/22 112/128/22 107/129/22 106/130/22
f 105/131/23 110/126/23 111/127/23 106/132/23
f 109/125/24 108/133/24 107/134/24 112/128/24
f 114/135/25 113/136/25 97/111/25 98/137/25
f 115/138/25 114/135/25 98/137/25 99/139/25
f 116/140/25 115/138/25 99/139/25 100/112/25
f 113/136/25 116/140/25 100/112/25 97/111/25
f 117/141/26 118/142/26 102/114/26 101/113/26
f 118/142/26 119/143/26 103/115/26 102/114/26
f 120/144/26 117/141/26 101/113/26 104/116/26
f 119/143/26 120/144/26 104/116/26 103/115/26
f 122/145/25 121/146/25 105/123/25 106/147/25
f 123/148/25 122/145/25 106/147/25 107/149/25
f 124/150/25 123/148/25 107/149/25 108/124/25
f 121/146/25 124/150/25 108/124/25 105/123/25
f 125/151/26 126/152/26 110/126/26 109/125/26
f 126/152/26 127/153/26 111/127/26 110/126/26
f 128/154/26 125/151/26 109/125/26 112/128/26
f 127/153/26 128/154/26 112/128/26 111/127/26
f 81/155/27 83/156/27 113/136/27 114/135/27
f 82/157/28 81/155/28 114/135/28 115/138/28
f 84/158/29 82/157/29 115/138/29 116/140/29
f 83/156/30 84/158/30 116/140/30 113/136/30
f 88/159/31 87/160/31 118/142/31 117/141/31
f 87/160/32 85/161/32 119/143/32 118/142/32
f 86/162/33 88/159/33 117/141/33 120/144/33
f 85/161/34 86/162/34 120/144/34 119/143/34
f 89/163/27 91/164/27 121/146/27 122/145/27
f 90/165/28 89/163/28 122/145/28 123/148/28
f 92/166/29 90/165/29 123/148/29 124/150/29
f 91/164/30 92/166/30 124/150/30 121/146/30
f 96/167/31 95/168/31 126/152/31 125/151/31
f 95/168/32 93/169/32 127/153/32 126/152/32
f 94/170/33 96/167/33 125/151/33 128/154/33
f 93/169/34 94/170/34 128/154/34 127/153/34
usemtl Material.002
f 81/155/25 82/157/25 84/158/25 83/156/25
f 87/160/26 88/159/26 86/162/26 85/161/26
f 89/163/25 90/165/25 92/166/25 91/164/25
f 95/168/26 96/167/26 94/170/26 93/169/26
o Cube.003_Cube.005
v -0.815722 -0.187192 0.979968
v -0.449348 -0.187192 0.979968
v -0.815722 0.177939 0.979968
v -0.449348 0.177939 0.979968
v -0.815722 -0.187192 -0.982834
v -0.449348 -0.187192 -0.982834
v -0.815722 0.177939 -0.982834
v -0.449348 0.177939 -0.982834
v -0.815722 -0.841358 0.979968
v -0.449348 -0.841358 0.979968
v -0.815722 -0.476227 0.979968
v -0.449348 -0.476227 0.979968
v -0.815722 -0.841358 -0.982834
v -0.449348 -0.841358 -0.982834
v -0.815722 -0.476227 -0.982834
v -0.449348 -0.476227 -0.982834
v -0.948187 0.309955 1.008192
v -0.948187 -0.319208 1.008192
v -0.316883 -0.319208 1.008192
v -0.316883 0.309955 1.008192
v -0.316883 0.309955 -1.011058
v -0.948187 0.309955 -1.011058
v -0.948187 -0.319208 -1.011058
v -0.316883 -0.319208 -1.011058
v -0.948187 -0.344211 1.008192
v -0.948187 -0.973374 1.008192
v -0.316883 -0.973374 1.008192
v -0.316883 -0.344211 1.008192
v -0.316883 -0.344211 -1.011058
v -0.948187 -0.344211 -1.011058
v -0.948187 -0.973374 -1.011058
v -0.316883 -0.973374 -1.011058
v -0.868110 0.230889 1.008192
v -0.868111 -0.242586 1.008192
v -0.396630 -0.242586 1.008192
v -0.396630 0.230889 1.008192
v -0.396630 0.230889 -1.011058
v -0.868111 0.230889 -1.011058
v -0.868111 -0.242586 -1.011058
v -0.396630 -0.242586 -1.011058
v -0.868111 -0.423276 1.008192
v -0.868111 -0.896752 1.008192
v -0.396630 -0.896752 1.008192
v -0.396630 -0.423276 1.008192
v -0.396630 -0.423276 -1.011058
v -0.868111 -0.423276 -1.011058
v -0.868111 -0.896752 -1.011058
v -0.396630 -0.896752 -1.011058
vt 0.375000 0.250000
vt 0.625000 0.250000
vt 0.625000 0.500000
vt 0.375000 0.500000
vt 0.375000 0.750000
vt 0.625000 0.750000
vt 0.625000 1.000000
vt 0.375000 1.000000
vt 0.125000 0.500000
vt 0.125000 0.750000
vt 0.875000 0.500000
vt 0.875000 0.750000
vt 0.375000 0.250000
vt 0.625000 0.250000
vt 0.625000 0.500000
vt 0.375000 0.500000
vt 0.375000 0.750000
vt 0.625000 0.750000
vt 0.625000 1.000000
vt 0.375000 1.000000
vt 0.125000 0.500000
vt 0.125000 0.750000
vt 0.875000 0.500000
vt 0.875000 0.750000
vt 0.391090 0.016090
vt 0.391090 0.233910
vt 0.375000 0.000000
vt 0.608910 0.016090
vt 0.625000 0.000000
vt 0.608910 0.233910
vt 0.608910 0.516090
vt 0.391090 0.516090
vt 0.391090 0.733910
vt 0.608910 0.733910
vt 0.391090 0.016090
vt 0.391090 0.233910
vt 0.375000 0.000000
vt 0.608910 0.016090
vt 0.625000 0.000000
vt 0.608910 0.233910
vt 0.608910 0.516090
vt 0.391090 0.516090
vt 0.391090 0.733910
vt 0.608910 0.733910
vt 0.427457 0.052457
vt 0.427457 0.197543
vt 0.572543 0.052457
vt 0.572543 0.197543
vt 0.572543 0.552457
vt 0.427457 0.552457
vt 0.427457 0.697543
vt 0.572543 0.697543
vt 0.427457 0.052457
vt 0.427457 0.197543
vt 0.572543 0.052457
vt 0.572543 0.197543
vt 0.572543 0.552457
vt 0.427457 0.552457
vt 0.427457 0.697543
vt 0.572543 0.697543
vn 0.0000 1.0000 0.0000
vn 0.0000 -1.0000 0.0000
vn -1.0000 0.0000 0.0000
vn 1.0000 0.0000 -0.0000
vn 0.0000 0.0000 1.0000
vn 0.0000 0.0000 -1.0000
vn 0.4743 -0.0000 0.8804
vn 0.0000 0.4540 0.8910
vn -0.4720 0.0000 0.8816
vn 0.0000 -0.4704 0.8825
vn 0.0000 -0.4704 -0.8825
vn 0.4743 0.0000 -0.8804
vn -0.4720 0.0000 -0.8816
vn 0.0000 0.4540 -0.8910
usemtl Material.001
s off
f 145/171/35 148/172/35 149/173/35 150/174/35
f 151/175/36 152/176/36 147/177/36 146/178/36
f 145/179/37 150/174/37 151/175/37 146/180/37
f 149/173/38 148/181/38 147/182/38 152/176/38
f 153/183/35 156/184/35 157/185/35 158/186/35
f 159/187/36 160/188/36 155/189/36 154/190/36
f 153/191/37 158/186/37 159/187/37 154/192/37
f 157/185/38 156/193/38 155/194/38 160/188/38
f 162/195/39 161/196/39 145/171/39 146/197/39
f 163/198/39 162/195/39 146/197/39 147/199/39
f 164/200/39 163/198/39 147/199/39 148/172/39
f 161/196/39 164/200/39 148/172/39 145/171/39
f 165/201/40 166/202/40 150/174/40 149/173/40
f 166/202/40 167/203/40 151/175/40 150/174/40
f 168/204/40 165/201/40 149/173/40 152/176/40
f 167/203/40 168/204/40 152/176/40 151/175/40
f 170/205/39 169/206/39 153/183/39 154/207/39
f 171/208/39 170/205/39 154/207/39 155/209/39
f 172/210/39 171/208/39 155/209/39 156/184/39
f 169/206/39 172/210/39 156/184/39 153/183/39
f 173/211/40 174/212/40 158/186/40 157/185/40
f 174/212/40 175/213/40 159/187/40 158/186/40
f 176/214/40 173/211/40 157/185/40 160/188/40
f 175/213/40 176/214/40 160/188/40 159/187/40
f 129/215/41 131/216/41 161/196/41 162/195/41
f 130/217/42 129/215/42 162/195/42 163/198/42
f 132/218/43 130/217/43 163/198/43 164/200/43
f 131/216/44 132/218/44 164/200/44 161/196/44
f 136/219/45 135/220/45 166/202/45 165/201/45
f 135/220/46 133/221/46 167/203/46 166/202/46
f 134/222/47 136/219/47 165/201/47 168/204/47
f 133/221/48 134/222/48 168/204/48 167/203/48
f 137/223/41 139/224/41 169/206/41 170/205/41
f 138/225/42 137/223/42 170/205/42 171/208/42
f 140/226/43 138/225/43 171/208/43 172/210/43
f 139/224/44 140/226/44 172/210/44 169/206/44
f 144/227/45 143/228/45 174/212/45 173/211/45
f 143/228/46 141/229/46 175/213/46 174/212/46
f 142/230/47 144/227/47 173/211/47 176/214/47
f 141/229/48 142/230/48 176/214/48 175/213/48
usemtl Material.002
f 129/215/39 130/217/39 132/218/39 131/216/39
f 135/220/40 136/219/40 134/222/40 133/221/40
f 137/223/39 138/225/39 140/226/39 139/224/39
f 143/228/40 144/227/40 142/230/40 141/229/40
