# Blender v2.80 (sub 74) OBJ File: ''
# www.blender.org
mtllib floor1.mtl
o Cube.005_Cube.008
v -0.972046 0.464058 -0.479424
v -0.972046 0.850568 -0.479424
v -0.972046 0.464058 -0.844555
v -0.972046 0.850568 -0.844555
v 0.972046 0.464058 -0.479424
v 0.972046 0.850568 -0.479424
v 0.972046 0.464058 -0.844555
v 0.972046 0.850568 -0.844555
v -0.972046 0.464058 0.182516
v -0.972046 0.850568 0.182516
v -0.972046 0.464058 -0.182615
v -0.972046 0.850568 -0.182615
v 0.972046 0.464058 0.182516
v 0.972046 0.850568 0.182516
v 0.972046 0.464058 -0.182615
v 0.972046 0.850568 -0.182615
v -0.972046 0.464058 0.836682
v -0.972046 0.850568 0.836682
v -0.972046 0.464058 0.471550
v -0.972046 0.850568 0.471550
v 0.972046 0.464058 0.836682
v 0.972046 0.850568 0.836682
v 0.972046 0.464058 0.471550
v 0.972046 0.850568 0.471550
v -0.815722 -0.187192 0.979968
v -0.449348 -0.187192 0.979968
v -0.815722 0.177939 0.979968
v -0.449348 0.177939 0.979968
v -0.815722 -0.187192 -0.982834
v -0.449348 -0.187192 -0.982834
v -0.815722 0.177939 -0.982834
v -0.449348 0.177939 -0.982834
v -0.815722 -0.841358 0.979968
v -0.449348 -0.841358 0.979968
v -0.815722 -0.476227 0.979968
v -0.449348 -0.476227 0.979968
v -0.815722 -0.841358 -0.982834
v -0.449348 -0.841358 -0.982834
v -0.815722 -0.476227 -0.982834
v -0.449348 -0.476227 -0.982834
v 0.429063 -0.187192 0.979968
v 0.795437 -0.187192 0.979968
v 0.429063 0.177939 0.979968
v 0.795437 0.177939 0.979968
v 0.429063 -0.187192 -0.982834
v 0.795437 -0.187192 -0.982834
v 0.429063 0.177939 -0.982834
v 0.795437 0.177939 -0.982834
v 0.429063 -0.841358 0.979968
v 0.795437 -0.841358 0.979968
v 0.429063 -0.476227 0.979968
v 0.795437 -0.476227 0.979968
v 0.429063 -0.841358 -0.982834
v 0.795437 -0.841358 -0.982834
v 0.429063 -0.476227 -0.982834
v 0.795437 -0.476227 -0.982834
vt 0.427457 0.052457
vt 0.572543 0.052457
vt 0.572543 0.197543
vt 0.427457 0.197543
vt 0.427457 0.552457
vt 0.572543 0.552457
vt 0.572543 0.697543
vt 0.427457 0.697543
vt 0.427457 0.052457
vt 0.572543 0.052457
vt 0.572543 0.197543
vt 0.427457 0.197543
vt 0.427457 0.552457
vt 0.572543 0.552457
vt 0.572543 0.697543
vt 0.427457 0.697543
vt 0.427457 0.052457
vt 0.572543 0.052457
vt 0.572543 0.197543
vt 0.427457 0.197543
vt 0.427457 0.552457
vt 0.572543 0.552457
vt 0.572543 0.697543
vt 0.427457 0.697543
vt 0.427457 0.052457
vt 0.572543 0.052457
vt 0.572543 0.197543
vt 0.427457 0.197543
vt 0.427457 0.552457
vt 0.572543 0.552457
vt 0.572543 0.697543
vt 0.427457 0.697543
vt 0.427457 0.052457
vt 0.572543 0.052457
vt 0.572543 0.197543
vt 0.427457 0.197543
vt 0.427457 0.552457
vt 0.572543 0.552457
vt 0.572543 0.697543
vt 0.427457 0.697543
vt 0.427457 0.052457
vt 0.572543 0.052457
vt 0.572543 0.197543
vt 0.427457 0.197543
vt 0.427457 0.552457
vt 0.572543 0.552457
vt 0.572543 0.697543
vt 0.427457 0.697543
vt 0.427457 0.052457
vt 0.572543 0.052457
vt 0.572543 0.197543
vt 0.427457 0.197543
vt 0.427457 0.552457
vt 0.572543 0.552457
vt 0.572543 0.697543
vt 0.427457 0.697543
vn -1.0000 0.0000 0.0000
vn 1.0000 0.0000 0.0000
vn 0.0000 0.0000 1.0000
vn 0.0000 0.0000 -1.0000
usemtl Material.002
s off
f 1/1/1 2/2/1 4/3/1 3/4/1
f 7/5/2 8/6/2 6/7/2 5/8/2
f 9/9/1 10/10/1 12/11/1 11/12/1
f 15/13/2 16/14/2 14/15/2 13/16/2
f 17/17/1 18/18/1 20/19/1 19/20/1
f 23/21/2 24/22/2 22/23/2 21/24/2
f 25/25/3 26/26/3 28/27/3 27/28/3
f 31/29/4 32/30/4 30/31/4 29/32/4
f 33/33/3 34/34/3 36/35/3 35/36/3
f 39/37/4 40/38/4 38/39/4 37/40/4
f 41/41/3 42/42/3 44/43/3 43/44/3
f 47/45/4 48/46/4 46/47/4 45/48/4
f 49/49/3 50/50/3 52/51/3 51/52/3
f 55/53/4 56/54/4 54/55/4 53/56/4
