# Blender v2.80 (sub 74) OBJ File: ''
# www.blender.org
mtllib platform.mtl
o Circle
v 0.000000 1.000651 -1.000000
v -0.195090 1.000651 -0.980785
v -0.382683 1.000651 -0.923880
v -0.555570 1.000651 -0.831470
v -0.707107 1.000651 -0.707107
v -0.831470 1.000651 -0.555570
v -0.923880 1.000651 -0.382683
v -0.980785 1.000651 -0.195090
v -1.000000 1.000651 -0.000000
v -0.980785 1.000651 0.195090
v -0.923880 1.000651 0.382683
v -0.831470 1.000651 0.555570
v -0.707107 1.000651 0.707107
v -0.555570 1.000651 0.831470
v -0.382683 1.000651 0.923880
v -0.195090 1.000651 0.980785
v 0.000000 1.000651 1.000000
v 0.195091 1.000651 0.980785
v 0.382684 1.000651 0.923879
v 0.555571 1.000651 0.831469
v 0.707107 1.000651 0.707106
v 0.831470 1.000651 0.555570
v 0.923880 1.000651 0.382683
v 0.980785 1.000651 0.195089
v 1.000000 1.000651 -0.000001
v 0.980785 1.000651 -0.195091
v 0.923879 1.000651 -0.382684
v 0.831469 1.000651 -0.555571
v 0.707106 1.000651 -0.707108
v 0.555569 1.000651 -0.831470
v 0.382682 1.000651 -0.923880
v 0.195089 1.000651 -0.980786
v 0.000000 1.067247 -1.000000
v -0.195090 1.067247 -0.980785
v -0.382683 1.067247 -0.923880
v -0.555570 1.067247 -0.831470
v -0.707107 1.067247 -0.707107
v -0.831470 1.067247 -0.555570
v -0.923880 1.067247 -0.382683
v -0.980785 1.067247 -0.195090
v -1.000000 1.067247 -0.000000
v -0.980785 1.067247 0.195090
v -0.923880 1.067247 0.382683
v -0.831470 1.067247 0.555570
v -0.707107 1.067247 0.707107
v -0.555570 1.067247 0.831470
v -0.382683 1.067247 0.923880
v -0.195090 1.067247 0.980785
v 0.000000 1.067247 1.000000
v 0.195091 1.067247 0.980785
v 0.382684 1.067247 0.923879
v 0.555571 1.067247 0.831469
v 0.707107 1.067247 0.707106
v 0.831470 1.067247 0.555570
v 0.923880 1.067247 0.382683
v 0.980785 1.067247 0.195089
v 1.000000 1.067247 -0.000001
v 0.980785 1.067247 -0.195091
v 0.923879 1.067247 -0.382684
v 0.831469 1.067247 -0.555571
v 0.707106 1.067247 -0.707108
v 0.555569 1.067247 -0.831470
v 0.382682 1.067247 -0.923880
v 0.195089 1.067247 -0.980786
v -0.000000 1.138574 -0.798244
v -0.155730 1.138574 -0.782906
v -0.305475 1.138574 -0.737481
v -0.443480 1.138574 -0.663715
v -0.564443 1.138574 -0.564443
v -0.663715 1.138574 -0.443480
v -0.737481 1.138574 -0.305475
v -0.782906 1.138574 -0.155730
v -0.798244 1.138574 -0.000000
v -0.782906 1.138574 0.155729
v -0.737481 1.138574 0.305474
v -0.663715 1.138574 0.443480
v -0.564443 1.138574 0.564443
v -0.443480 1.138574 0.663715
v -0.305474 1.138574 0.737481
v -0.155729 1.138574 0.782905
v 0.000000 1.138574 0.798243
v 0.155730 1.138574 0.782905
v 0.305475 1.138574 0.737481
v 0.443481 1.138574 0.663715
v 0.564444 1.138574 0.564443
v 0.663716 1.138574 0.443480
v 0.737481 1.138574 0.305474
v 0.782906 1.138574 0.155729
v 0.798244 1.138574 -0.000001
v 0.782905 1.138574 -0.155730
v 0.737480 1.138574 -0.305475
v 0.663715 1.138574 -0.443481
v 0.564443 1.138574 -0.564444
v 0.443479 1.138574 -0.663716
v 0.305473 1.138574 -0.737481
v 0.155728 1.138574 -0.782906
v -0.000000 1.138574 -0.000000
v -0.000000 1.000651 -0.000000
vt 0.000000 0.000000
vt 0.000000 0.000000
vt 0.000000 0.000000
vt 0.000000 0.000000
vt 0.000000 0.000000
vt 0.000000 0.000000
vt 0.000000 0.000000
vt 0.000000 0.000000
vt 0.000000 0.000000
vt 0.000000 0.000000
vt 0.000000 0.000000
vt 0.000000 0.000000
vt 0.000000 0.000000
vt 0.000000 0.000000
vt 0.000000 0.000000
vt 0.000000 0.000000
vt 0.000000 0.000000
vt 0.000000 0.000000
vt 0.000000 0.000000
vt 0.000000 0.000000
vt 0.000000 0.000000
vt 0.000000 0.000000
vt 0.000000 0.000000
vt 0.000000 0.000000
vt 0.000000 0.000000
vt 0.000000 0.000000
vt 0.000000 0.000000
vt 0.000000 0.000000
vt 0.000000 0.000000
vt 0.000000 0.000000
vt 0.000000 0.000000
vt 0.000000 0.000000
vt 0.000000 0.000000
vt 0.000000 0.000000
vt 0.000000 0.000000
vt 0.000000 0.000000
vt 0.000000 0.000000
vt 0.000000 0.000000
vt 0.000000 0.000000
vt 0.000000 0.000000
vt 0.000000 0.000000
vt 0.000000 0.000000
vt 0.000000 0.000000
vt 0.000000 0.000000
vt 0.000000 0.000000
vt 0.000000 0.000000
vt 0.000000 0.000000
vt 0.000000 0.000000
vt 0.000000 0.000000
vt 0.000000 0.000000
vt 0.000000 0.000000
vt 0.000000 0.000000
vt 0.000000 0.000000
vt 0.000000 0.000000
vt 0.000000 0.000000
vt 0.000000 0.000000
vt 0.000000 0.000000
vt 0.000000 0.000000
vt 0.000000 0.000000
vt 0.000000 0.000000
vt 0.000000 0.000000
vt 0.000000 0.000000
vt 0.000000 0.000000
vt 0.000000 0.000000
vt 0.000000 0.000000
vt 0.000000 0.000000
vt 0.000000 0.000000
vt 0.000000 0.000000
vt 0.000000 0.000000
vt 0.000000 0.000000
vt 0.000000 0.000000
vt 0.000000 0.000000
vt 0.000000 0.000000
vt 0.000000 0.000000
vt 0.000000 0.000000
vt 0.000000 0.000000
vt 0.000000 0.000000
vt 0.000000 0.000000
vt 0.000000 0.000000
vt 0.000000 0.000000
vt 0.000000 0.000000
vt 0.000000 0.000000
vt 0.000000 0.000000
vt 0.000000 0.000000
vt 0.000000 0.000000
vt 0.000000 0.000000
vt 0.000000 0.000000
vt 0.000000 0.000000
vt 0.000000 0.000000
vt 0.000000 0.000000
vt 0.000000 0.000000
vt 0.000000 0.000000
vt 0.000000 0.000000
vt 0.000000 0.000000
vt 0.000000 0.000000
vt 0.000000 0.000000
vt 0.000000 0.000000
vt 0.000000 0.000000
vn -0.9569 0.0000 0.2903
vn 0.9952 0.0000 0.0980
vn -0.8819 0.0000 0.4714
vn 0.9952 0.0000 -0.0980
vn -0.7730 0.0000 0.6344
vn 0.9569 0.0000 -0.2903
vn -0.6344 0.0000 0.7730
vn 0.8819 0.0000 -0.4714
vn -0.4714 0.0000 0.8819
vn -0.0980 0.0000 -0.9952
vn 0.7730 0.0000 -0.6344
vn -0.2903 0.0000 0.9569
vn -0.2903 0.0000 -0.9569
vn 0.6344 0.0000 -0.7730
vn -0.0980 0.0000 0.9952
vn -0.4714 0.0000 -0.8819
vn 0.4714 0.0000 -0.8819
vn 0.0980 0.0000 0.9952
vn -0.6344 0.0000 -0.7730
vn 0.2903 0.0000 -0.9569
vn 0.2903 0.0000 0.9569
vn -0.7730 0.0000 -0.6344
vn 0.0980 0.0000 -0.9952
vn 0.4714 0.0000 0.8819
vn -0.8819 0.0000 -0.4714
vn 0.6344 0.0000 0.7730
vn -0.9569 0.0000 -0.2903
vn 0.7730 0.0000 0.6344
vn -0.9952 0.0000 -0.0980
vn 0.8819 0.0000 0.4714
vn -0.9952 0.0000 0.0980
vn 0.9569 0.0000 0.2903
vn 0.0972 0.9423 0.3203
vn -0.2588 0.9423 -0.2124
vn 0.0328 0.9423 -0.3331
vn 0.1578 0.9423 0.2952
vn -0.2952 0.9423 -0.1578
vn 0.2124 0.9423 0.2588
vn -0.3203 0.9423 -0.0972
vn 0.2588 0.9423 0.2124
vn -0.3331 0.9423 -0.0328
vn 0.2952 0.9423 0.1578
vn -0.3331 0.9423 0.0328
vn 0.3203 0.9423 0.0972
vn -0.3203 0.9423 0.0972
vn 0.3331 0.9423 0.0328
vn -0.2952 0.9423 0.1578
vn 0.3331 0.9423 -0.0328
vn -0.2588 0.9423 0.2124
vn 0.3203 0.9423 -0.0972
vn -0.2124 0.9423 0.2588
vn 0.2952 0.9423 -0.1578
vn -0.1578 0.9423 0.2952
vn -0.0328 0.9423 -0.3331
vn 0.2588 0.9423 -0.2124
vn -0.0972 0.9423 0.3203
vn -0.0972 0.9423 -0.3203
vn 0.2124 0.9423 -0.2588
vn -0.0328 0.9423 0.3331
vn -0.1578 0.9423 -0.2952
vn 0.1578 0.9423 -0.2952
vn 0.0328 0.9423 0.3331
vn -0.2124 0.9423 -0.2588
vn 0.0972 0.9423 -0.3203
vn 0.0000 -1.0000 0.0000
vn 0.0000 1.0000 0.0000
usemtl mat_platform0
s off
f 11/1/1 43/2/1 42/3/1 10/4/1
f 25/5/2 57/6/2 56/7/2 24/8/2
f 12/9/3 44/10/3 43/2/3 11/1/3
f 26/11/4 58/12/4 57/6/4 25/5/4
f 13/13/5 45/14/5 44/10/5 12/9/5
f 27/15/6 59/16/6 58/12/6 26/11/6
f 14/17/7 46/18/7 45/14/7 13/13/7
f 28/19/8 60/20/8 59/16/8 27/15/8
f 15/21/9 47/22/9 46/18/9 14/17/9
f 2/23/10 34/24/10 33/25/10 1/26/10
f 29/27/11 61/28/11 60/20/11 28/19/11
f 16/29/12 48/30/12 47/22/12 15/21/12
f 3/31/13 35/32/13 34/24/13 2/23/13
f 30/33/14 62/34/14 61/28/14 29/27/14
f 17/35/15 49/36/15 48/30/15 16/29/15
f 4/37/16 36/38/16 35/32/16 3/31/16
f 31/39/17 63/40/17 62/34/17 30/33/17
f 18/41/18 50/42/18 49/36/18 17/35/18
f 5/43/19 37/44/19 36/38/19 4/37/19
f 32/45/20 64/46/20 63/40/20 31/39/20
f 19/47/21 51/48/21 50/42/21 18/41/21
f 6/49/22 38/50/22 37/44/22 5/43/22
f 1/26/23 33/25/23 64/46/23 32/45/23
f 20/51/24 52/52/24 51/48/24 19/47/24
f 7/53/25 39/54/25 38/50/25 6/49/25
f 21/55/26 53/56/26 52/52/26 20/51/26
f 8/57/27 40/58/27 39/54/27 7/53/27
f 22/59/28 54/60/28 53/56/28 21/55/28
f 9/61/29 41/62/29 40/58/29 8/57/29
f 23/63/30 55/64/30 54/60/30 22/59/30
f 10/4/31 42/3/31 41/62/31 9/61/31
f 24/8/32 56/7/32 55/64/32 23/63/32
f 51/48/33 83/65/33 82/66/33 50/42/33
f 38/50/34 70/67/34 69/68/34 37/44/34
f 33/25/35 65/69/35 96/70/35 64/46/35
f 52/52/36 84/71/36 83/65/36 51/48/36
f 39/54/37 71/72/37 70/67/37 38/50/37
f 53/56/38 85/73/38 84/71/38 52/52/38
f 40/58/39 72/74/39 71/72/39 39/54/39
f 54/60/40 86/75/40 85/73/40 53/56/40
f 41/62/41 73/76/41 72/74/41 40/58/41
f 55/64/42 87/77/42 86/75/42 54/60/42
f 42/3/43 74/78/43 73/76/43 41/62/43
f 56/7/44 88/79/44 87/77/44 55/64/44
f 43/2/45 75/80/45 74/78/45 42/3/45
f 57/6/46 89/81/46 88/79/46 56/7/46
f 44/10/47 76/82/47 75/80/47 43/2/47
f 58/12/48 90/83/48 89/81/48 57/6/48
f 45/14/49 77/84/49 76/82/49 44/10/49
f 59/16/50 91/85/50 90/83/50 58/12/50
f 46/18/51 78/86/51 77/84/51 45/14/51
f 60/20/52 92/87/52 91/85/52 59/16/52
f 47/22/53 79/88/53 78/86/53 46/18/53
f 34/24/54 66/89/54 65/69/54 33/25/54
f 61/28/55 93/90/55 92/87/55 60/20/55
f 48/30/56 80/91/56 79/88/56 47/22/56
f 35/32/57 67/92/57 66/89/57 34/24/57
f 62/34/58 94/93/58 93/90/58 61/28/58
f 49/36/59 81/94/59 80/91/59 48/30/59
f 36/38/60 68/95/60 67/92/60 35/32/60
f 63/40/61 95/96/61 94/93/61 62/34/61
f 50/42/62 82/66/62 81/94/62 49/36/62
f 37/44/63 69/68/63 68/95/63 36/38/63
f 64/46/64 96/70/64 95/96/64 63/40/64
f 11/1/65 98/97/65 12/9/65
f 25/5/65 98/97/65 26/11/65
f 12/9/65 98/97/65 13/13/65
f 26/11/65 98/97/65 27/15/65
f 13/13/65 98/97/65 14/17/65
f 27/15/65 98/97/65 28/19/65
f 14/17/65 98/97/65 15/21/65
f 1/26/65 98/97/65 2/23/65
f 28/19/65 98/97/65 29/27/65
f 15/21/65 98/97/65 16/29/65
f 2/23/65 98/97/65 3/31/65
f 29/27/65 98/97/65 30/33/65
f 16/29/65 98/97/65 17/35/65
f 3/31/65 98/97/65 4/37/65
f 30/33/65 98/97/65 31/39/65
f 17/35/65 98/97/65 18/41/65
f 4/37/65 98/97/65 5/43/65
f 31/39/65 98/97/65 32/45/65
f 18/41/65 98/97/65 19/47/65
f 5/43/65 98/97/65 6/49/65
f 32/45/65 98/97/65 1/26/65
f 19/47/65 98/97/65 20/51/65
f 6/49/65 98/97/65 7/53/65
f 20/51/65 98/97/65 21/55/65
f 7/53/65 98/97/65 8/57/65
f 21/55/65 98/97/65 22/59/65
f 8/57/65 98/97/65 9/61/65
f 22/59/65 98/97/65 23/63/65
f 9/61/65 98/97/65 10/4/65
f 23/63/65 98/97/65 24/8/65
f 10/4/65 98/97/65 11/1/65
f 24/8/65 98/97/65 25/5/65
usemtl mat_platform1
f 86/75/66 97/98/66 85/73/66
f 73/76/66 97/98/66 72/74/66
f 87/77/66 97/98/66 86/75/66
f 74/78/66 97/98/66 73/76/66
f 88/79/66 97/98/66 87/77/66
f 75/80/66 97/98/66 74/78/66
f 89/81/66 97/98/66 88/79/66
f 76/82/66 97/98/66 75/80/66
f 90/83/66 97/98/66 89/81/66
f 77/84/66 97/98/66 76/82/66
f 91/85/66 97/98/66 90/83/66
f 78/86/66 97/98/66 77/84/66
f 92/87/66 97/98/66 91/85/66
f 79/88/66 97/98/66 78/86/66
f 66/89/66 97/98/66 65/69/66
f 93/90/66 97/98/66 92/87/66
f 80/91/66 97/98/66 79/88/66
f 67/92/66 97/98/66 66/89/66
f 94/93/66 97/98/66 93/90/66
f 81/94/66 97/98/66 80/91/66
f 68/95/66 97/98/66 67/92/66
f 95/96/66 97/98/66 94/93/66
f 82/66/66 97/98/66 81/94/66
f 69/68/66 97/98/66 68/95/66
f 96/70/66 97/98/66 95/96/66
f 83/65/66 97/98/66 82/66/66
f 70/67/66 97/98/66 69/68/66
f 65/69/66 97/98/66 96/70/66
f 84/71/66 97/98/66 83/65/66
f 71/72/66 97/98/66 70/67/66
f 85/73/66 97/98/66 84/71/66
f 72/74/66 97/98/66 71/72/66
