# Blender v2.80 (sub 74) OBJ File: ''
# www.blender.org
mtllib grass_4.mtl
o Cube_Cube.007
v 1.000000 -1.000000 -1.000000
v 1.000000 -1.000000 1.000000
v -1.000000 -1.000000 -1.000000
v -1.000000 -1.000000 1.000000
v 1.000000 0.110830 -1.000000
v -1.000000 0.000000 1.000000
v 1.000000 0.000000 1.000000
v -1.000000 0.125899 -1.000000
v -1.018662 0.112701 1.018662
v 1.018662 0.223531 -1.018662
v 1.018662 0.112701 1.018662
v -1.018662 0.238600 -1.018662
v -1.000000 -1.000000 0.000000
v 1.000000 -1.000000 0.000000
v 1.000000 0.000000 0.000000
v -1.000000 0.000000 0.000000
v 1.018662 0.112701 0.000000
v -1.018662 0.112701 0.000000
v 0.000000 -1.000000 -1.000000
v 0.000000 -1.000000 1.000000
v 0.000000 0.162545 -1.000000
v 0.000000 0.000000 1.000000
v 0.000000 0.275246 -1.018662
v 0.000000 0.112701 1.018662
v 0.000000 -1.000000 0.000000
v -0.500000 -1.000000 -1.000000
v -0.500000 0.164048 1.000000
v -0.509331 0.276749 1.018662
v -0.500000 -1.000000 0.000000
v -0.500000 -1.000000 1.000000
v -0.500000 0.000000 -1.000000
v -0.509331 0.112701 -1.018662
v 1.000000 -1.000000 -0.500000
v -1.000000 0.142008 -0.500000
v -1.018662 0.254709 -0.509331
v -1.000000 -1.000000 -0.500000
v 1.000000 0.158508 -0.500000
v 1.018662 0.271209 -0.509331
v 0.000000 -1.000000 -0.500000
v -0.500000 -1.000000 -0.500000
v -1.000000 -1.000000 0.500000
v 0.000000 1.100000 0.500000
v 1.000000 0.158508 0.500000
v 1.018662 0.271209 0.509331
v -0.500000 1.100000 0.500000
v 1.000000 -1.000000 0.500000
v -1.000000 0.142008 0.500000
v -1.018662 0.254709 0.509331
v 0.000000 -1.000000 0.500000
v 0.500000 1.100000 0.500000
v -0.500000 -1.000000 0.500000
v 0.000000 1.100000 0.000001
v 0.500000 -1.000000 1.000000
v -0.500000 1.100000 0.000001
v 0.500000 0.000000 -1.000000
v 0.509331 0.112701 -1.018662
v 0.500000 1.100000 0.000000
v 0.500000 -1.000000 -1.000000
v 0.000000 1.100000 -0.499999
v 0.500000 0.164048 1.000000
v 0.509331 0.276749 1.018662
v 0.500000 -1.000000 0.000000
v 0.500000 1.100000 -0.499999
v 0.500000 -1.000000 -0.500000
v -0.500000 1.100000 -0.499999
v 0.500000 -1.000000 0.500000
v -0.500000 1.100000 0.900000
v -0.900000 1.100000 0.900000
v 0.900000 1.100000 0.500000
v 0.900000 1.100000 0.900000
v -0.900000 1.100000 -0.500000
v -0.900000 1.100000 -0.900000
v 0.500000 1.100000 -0.900000
v 0.900000 1.100000 -0.900000
v 0.900000 1.100000 -0.500000
v 0.900000 1.100000 0.000000
v -0.900000 1.100000 0.500000
v -0.900000 1.100000 0.000000
v 0.500000 1.100000 0.900000
v 0.000000 1.100000 0.900000
v -0.500000 1.100000 -0.900000
v 0.000000 1.100000 -0.900000
v -0.500000 1.000000 1.000000
v -1.000000 1.000000 1.000000
v 1.000000 1.000000 0.500000
v 1.000000 1.000000 1.000000
v -1.000000 1.000000 -0.500000
v -1.000000 1.000000 -1.000000
v 0.500000 1.000000 -1.000000
v 1.000000 1.000000 -1.000000
v 1.000000 1.000000 -0.500000
v 1.000000 1.000000 0.000000
v -1.000000 1.000000 0.500000
v -1.000000 1.000000 0.000000
v 0.500000 1.000000 1.000000
v 0.000000 1.000000 1.000000
v -0.500000 1.000000 -1.000000
v 0.000000 1.000000 -1.000000
vt 0.502077 0.437500
vt 0.625000 0.500000
vt 0.502077 0.500000
vt 0.502077 0.687500
vt 0.625000 0.750000
vt 0.502077 0.750000
vt 0.252077 0.687500
vt 0.375000 0.750000
vt 0.252077 0.750000
vt 0.875000 0.687500
vt 0.752077 0.750000
vt 0.752077 0.687500
vt 0.750000 0.750000
vt 0.750000 0.687500
vt 0.250000 0.687500
vt 0.250000 0.750000
vt 0.500000 0.750000
vt 0.500000 0.687500
vt 0.500000 0.437500
vt 0.500000 0.500000
vt 0.500000 0.562500
vt 0.502077 0.625000
vt 0.500000 0.625000
vt 0.250000 0.562500
vt 0.252077 0.625000
vt 0.250000 0.625000
vt 0.252077 0.562500
vt 0.375000 0.625000
vt 0.502077 0.562500
vt 0.625000 0.625000
vt 0.687500 0.468750
vt 0.628267 0.498366
vt 0.637500 0.443750
vt 0.500000 0.312500
vt 0.502077 0.375000
vt 0.500000 0.375000
vt 0.752077 0.562500
vt 0.750000 0.625000
vt 0.750000 0.562500
vt 0.875000 0.562500
vt 0.752077 0.625000
vt 0.502077 0.312500
vt 0.625000 0.375000
vt 0.750000 0.500000
vt 0.437500 0.631250
vt 0.450000 0.600000
vt 0.752077 0.500000
vt 0.750000 0.500000
vt 0.862500 0.556250
vt 0.662500 0.656250
vt 0.812500 0.531250
vt 0.750000 0.500000
vt 0.750000 0.500000
vt 0.812500 0.593750
vt 0.462500 0.568750
vt 0.812500 0.562500
vt 0.375000 0.500000
vt 0.252077 0.500000
vt 0.250000 0.500000
vt 0.862500 0.668750
vt 0.862500 0.612500
vt 0.637500 0.387500
vt 0.687500 0.437500
vt 0.625000 0.250000
vt 0.502077 0.250000
vt 0.500000 0.250000
vt 0.637500 0.331250
vt 0.687500 0.406250
vt 0.650000 0.600000
vt 0.637500 0.543750
vt 0.591336 0.332030
vt 0.471733 0.541832
vt 0.625000 0.437500
vt 0.375000 0.687500
vt 0.834802 0.538565
vt 0.625000 0.687500
vt 0.375000 0.562500
vt 0.625000 0.562500
vt 0.625000 0.312500
vt 0.875000 0.500000
vt 0.875000 0.625000
vt 0.875000 0.750000
vt 0.625000 0.937500
vt 0.562500 1.000000
vt 0.562500 0.937500
vt 0.625000 0.750000
vt 0.625000 0.687500
vt 0.125000 0.687500
vt 0.125000 0.750000
vt 0.375000 0.687500
vt 0.375000 0.750000
vt 0.375000 0.437500
vt 0.375000 0.500000
vt 0.375000 0.562500
vt 0.375000 0.625000
vt 0.125000 0.562500
vt 0.125000 0.625000
vt 0.625000 0.812500
vt 0.562500 0.875000
vt 0.562500 0.812500
vt 0.500000 0.812500
vt 0.437500 0.875000
vt 0.437500 0.812500
vt 0.375000 0.312500
vt 0.375000 0.375000
vt 0.625000 0.625000
vt 0.625000 0.562500
vt 0.500000 0.937500
vt 0.437500 1.000000
vt 0.437500 0.937500
vt 0.375000 1.000000
vt 0.375000 0.937500
vt 0.625000 0.500000
vt 0.375000 0.875000
vt 0.375000 0.812500
vt 0.437500 0.750000
vt 0.500000 0.750000
vt 0.562500 0.750000
vt 0.125000 0.500000
vt 0.500000 0.875000
vt 0.625000 0.875000
vt 0.375000 0.250000
vt 0.500000 1.000000
vt 0.625000 1.000000
vn -0.0068 0.0212 0.9998
vn -0.9997 0.0245 -0.0008
vn 0.9998 0.0212 0.0066
vn -0.0046 0.0210 -0.9998
vn 0.0368 -0.1662 -0.9854
vn 0.9867 -0.1552 -0.0492
vn -0.9866 -0.1629 0.0052
vn 0.0508 -0.1550 0.9866
vn -0.9855 -0.1632 0.0463
vn 0.9852 -0.1631 -0.0517
vn 0.9998 0.0210 0.0065
vn -0.9998 0.0210 -0.0059
vn 0.0000 1.0000 0.0000
vn 0.0535 -0.1631 0.9852
vn 0.0517 -0.1590 -0.9859
vn -0.0067 0.0211 -0.9998
vn -0.0068 0.0210 0.9998
vn 0.0052 0.0210 -0.9998
vn -0.0419 -0.1666 -0.9851
vn -0.0535 -0.1631 0.9852
vn 0.0068 0.0210 0.9998
vn 0.9997 0.0241 -0.0023
vn 0.9867 -0.1621 0.0155
vn -0.9855 -0.1632 -0.0463
vn -0.9998 0.0210 0.0059
vn -0.9998 0.0212 0.0059
vn -0.9868 -0.1561 -0.0443
vn 0.9852 -0.1631 0.0517
vn 0.9998 0.0210 -0.0065
vn 0.0068 0.0212 0.9998
vn -0.0508 -0.1550 0.9866
vn -0.0517 -0.1590 -0.9859
vn 0.0067 0.0211 -0.9998
vn 0.0000 0.7071 0.7071
vn 0.7071 0.7071 0.0000
vn -0.7071 0.7071 0.0000
vn 0.0000 0.7071 -0.7071
vn 0.0000 0.0258 0.9997
vn -0.9997 0.0250 0.0000
vn 0.9997 0.0256 0.0000
vn 0.0000 0.0240 -0.9997
vn 0.0368 -0.1692 -0.9849
vn 0.9860 -0.1592 -0.0495
vn -0.9867 -0.1625 0.0051
vn 0.0512 -0.1590 0.9859
vn -0.9849 -0.1669 0.0465
vn 0.9845 -0.1673 -0.0521
vn 0.0539 -0.1675 0.9844
vn 0.0521 -0.1631 -0.9852
vn 0.0000 0.0257 -0.9997
vn 0.0000 0.0245 -0.9997
vn -0.0420 -0.1700 -0.9845
vn -0.0539 -0.1675 0.9844
vn 0.9869 -0.1609 0.0151
vn -0.9849 -0.1669 -0.0465
vn -0.9862 -0.1596 -0.0445
vn 0.9845 -0.1673 0.0521
vn -0.0512 -0.1590 0.9859
vn -0.0521 -0.1631 -0.9852
vn 0.0000 -1.0000 0.0000
vn 0.0000 0.0000 -1.0000
vn 1.0000 0.0000 0.0000
vn -1.0000 0.0000 0.0000
vn 0.0000 0.0000 1.0000
g Cube_Cube.007_grass.002
usemtl grass.002
s off
f 28/1/1 84/2/1 9/3/1
f 35/4/2 88/5/2 12/6/2
f 44/7/3 86/8/3 11/9/3
f 89/10/4 10/11/4 56/12/4
f 56/12/5 5/13/5 55/14/5
f 43/15/6 11/9/6 7/16/6
f 35/4/7 8/17/7 34/18/7
f 27/19/8 9/3/8 6/20/8
f 47/21/9 18/22/9 16/23/9
f 37/24/10 17/25/10 15/26/10
f 38/27/11 92/28/11 17/25/11
f 48/29/12 94/30/12 18/22/12
f 45/31/13 68/32/13 67/33/13
f 60/34/14 24/35/14 22/36/14
f 32/37/15 21/38/15 31/39/15
f 97/40/16 23/41/16 32/37/16
f 61/42/17 96/43/17 24/35/17
f 57/44/13 69/45/13 76/46/13
f 12/47/18 97/40/18 32/37/18
f 8/48/19 32/37/19 31/39/19
f 81/49/13 71/50/13 65/51/13
f 24/35/20 27/19/20 22/36/20
f 96/43/21 28/1/21 24/35/21
f 52/52/13 65/51/13 54/53/13
f 63/54/13 76/46/13 75/55/13
f 59/56/13 57/44/13 63/54/13
f 90/57/22 38/27/22 10/58/22
f 5/59/23 38/27/23 37/24/23
f 18/22/24 34/18/24 16/23/24
f 94/30/25 35/4/25 18/22/25
f 59/56/13 73/60/13 82/61/13
f 80/62/13 45/31/13 67/33/13
f 84/2/26 48/29/26 9/3/26
f 9/3/27 47/21/27 6/20/27
f 17/25/28 43/15/28 15/26/28
f 92/28/29 44/7/29 17/25/29
f 42/63/13 54/53/13 45/31/13
f 86/64/30 61/42/30 11/65/30
f 11/65/31 60/34/31 7/66/31
f 21/38/32 56/12/32 55/14/32
f 23/41/33 89/10/33 56/12/33
f 42/63/13 79/67/13 50/68/13
f 52/52/13 50/68/13 57/44/13
f 59/56/13 81/49/13 65/51/13
f 65/51/13 78/69/13 54/53/13
f 54/53/13 77/70/13 45/31/13
f 50/68/13 70/71/13 69/45/13
f 73/60/13 75/55/13 74/72/13
f 68/32/34 83/73/34 67/33/34
f 70/71/35 85/74/35 69/45/35
f 72/75/36 87/76/36 71/50/36
f 74/72/37 89/10/37 73/60/37
f 76/46/35 91/77/35 75/55/35
f 78/69/36 93/78/36 77/70/36
f 80/62/34 95/79/34 79/67/34
f 82/61/37 97/40/37 81/49/37
f 67/33/34 96/43/34 80/62/34
f 72/75/37 97/40/37 88/80/37
f 71/50/36 94/30/36 78/69/36
f 74/72/35 91/77/35 90/57/35
f 69/45/35 92/28/35 76/46/35
f 68/32/36 93/78/36 84/2/36
f 73/60/37 98/81/37 82/61/37
f 70/71/34 95/79/34 86/64/34
f 28/1/38 83/73/38 84/2/38
f 35/4/39 87/76/39 88/5/39
f 44/7/40 85/74/40 86/8/40
f 89/10/41 90/82/41 10/11/41
f 56/12/42 10/11/42 5/13/42
f 43/15/43 44/7/43 11/9/43
f 35/4/44 12/6/44 8/17/44
f 27/19/45 28/1/45 9/3/45
f 47/21/46 48/29/46 18/22/46
f 37/24/47 38/27/47 17/25/47
f 38/27/40 91/77/40 92/28/40
f 48/29/39 93/78/39 94/30/39
f 45/31/13 77/70/13 68/32/13
f 60/34/48 61/42/48 24/35/48
f 32/37/49 23/41/49 21/38/49
f 97/40/50 98/81/50 23/41/50
f 61/42/38 95/79/38 96/43/38
f 57/44/13 50/68/13 69/45/13
f 12/47/51 88/80/51 97/40/51
f 8/48/52 12/47/52 32/37/52
f 81/49/13 72/75/13 71/50/13
f 24/35/53 28/1/53 27/19/53
f 96/43/38 83/73/38 28/1/38
f 52/52/13 59/56/13 65/51/13
f 63/54/13 57/44/13 76/46/13
f 59/56/13 52/52/13 57/44/13
f 90/57/40 91/77/40 38/27/40
f 5/59/54 10/58/54 38/27/54
f 18/22/55 35/4/55 34/18/55
f 94/30/39 87/76/39 35/4/39
f 59/56/13 63/54/13 73/60/13
f 80/62/13 42/63/13 45/31/13
f 84/2/39 93/78/39 48/29/39
f 9/3/56 48/29/56 47/21/56
f 17/25/57 44/7/57 43/15/57
f 92/28/40 85/74/40 44/7/40
f 42/63/13 52/52/13 54/53/13
f 86/64/38 95/79/38 61/42/38
f 11/65/58 61/42/58 60/34/58
f 21/38/59 23/41/59 56/12/59
f 23/41/50 98/81/50 89/10/50
f 42/63/13 80/62/13 79/67/13
f 52/52/13 42/63/13 50/68/13
f 59/56/13 82/61/13 81/49/13
f 65/51/13 71/50/13 78/69/13
f 54/53/13 78/69/13 77/70/13
f 50/68/13 79/67/13 70/71/13
f 73/60/13 63/54/13 75/55/13
f 68/32/34 84/2/34 83/73/34
f 70/71/35 86/64/35 85/74/35
f 72/75/36 88/80/36 87/76/36
f 74/72/37 90/57/37 89/10/37
f 76/46/35 92/28/35 91/77/35
f 78/69/36 94/30/36 93/78/36
f 80/62/34 96/43/34 95/79/34
f 82/61/37 98/81/37 97/40/37
f 67/33/34 83/73/34 96/43/34
f 72/75/37 81/49/37 97/40/37
f 71/50/36 87/76/36 94/30/36
f 74/72/35 75/55/35 91/77/35
f 69/45/35 85/74/35 92/28/35
f 68/32/36 77/70/36 93/78/36
f 73/60/37 89/10/37 98/81/37
f 70/71/34 79/67/34 95/79/34
g Cube_Cube.007_dirt.002
usemtl dirt.002
f 46/83/60 53/84/60 66/85/60
f 55/14/61 1/86/61 58/87/61
f 46/88/62 7/16/62 2/89/62
f 36/90/63 8/17/63 3/91/63
f 30/92/64 6/20/64 4/93/64
f 41/94/63 16/23/63 13/95/63
f 33/96/62 15/26/62 14/97/62
f 33/98/60 62/99/60 64/100/60
f 39/101/60 29/102/60 40/103/60
f 53/104/64 22/36/64 20/105/64
f 31/39/61 19/106/61 26/107/61
f 49/108/60 30/109/60 51/110/60
f 51/110/60 4/111/60 41/112/60
f 3/113/61 31/39/61 26/107/61
f 40/103/60 13/114/60 36/115/60
f 22/36/64 30/92/64 20/105/64
f 26/116/60 36/115/60 3/91/60
f 19/117/60 40/103/60 26/116/60
f 1/86/60 64/100/60 58/118/60
f 5/59/62 33/96/62 1/119/62
f 16/23/63 36/90/63 13/95/63
f 29/102/60 41/112/60 13/114/60
f 25/120/60 51/110/60 29/102/60
f 6/20/63 41/94/63 4/93/63
f 15/26/62 46/88/62 14/97/62
f 14/121/60 66/85/60 62/99/60
f 62/99/60 49/108/60 25/120/60
f 58/118/60 39/101/60 19/117/60
f 7/66/64 53/104/64 2/122/64
f 64/100/60 25/120/60 39/101/60
f 19/106/61 55/14/61 58/87/61
f 66/85/60 20/123/60 49/108/60
f 46/83/60 2/124/60 53/84/60
f 55/14/61 5/13/61 1/86/61
f 46/88/62 43/15/62 7/16/62
f 36/90/63 34/18/63 8/17/63
f 30/92/64 27/19/64 6/20/64
f 41/94/63 47/21/63 16/23/63
f 33/96/62 37/24/62 15/26/62
f 33/98/60 14/121/60 62/99/60
f 39/101/60 25/120/60 29/102/60
f 53/104/64 60/34/64 22/36/64
f 31/39/61 21/38/61 19/106/61
f 49/108/60 20/123/60 30/109/60
f 51/110/60 30/109/60 4/111/60
f 3/113/61 8/48/61 31/39/61
f 40/103/60 29/102/60 13/114/60
f 22/36/64 27/19/64 30/92/64
f 26/116/60 40/103/60 36/115/60
f 19/117/60 39/101/60 40/103/60
f 1/86/60 33/98/60 64/100/60
f 5/59/62 37/24/62 33/96/62
f 16/23/63 34/18/63 36/90/63
f 29/102/60 51/110/60 41/112/60
f 25/120/60 49/108/60 51/110/60
f 6/20/63 47/21/63 41/94/63
f 15/26/62 43/15/62 46/88/62
f 14/121/60 46/83/60 66/85/60
f 62/99/60 66/85/60 49/108/60
f 58/118/60 64/100/60 39/101/60
f 7/66/64 60/34/64 53/104/64
f 64/100/60 62/99/60 25/120/60
f 19/106/61 21/38/61 55/14/61
f 66/85/60 53/84/60 20/123/60
